<svg width="24" height="21" viewBox="0 0 329.27 329" xmlns="http://www.w3.org/2000/svg">
  <g fill="#9E9AA8" fill-rule="evenodd">
    <path d="M194.8 164.77L323.01 36.55a21.3 21.3 0 000-30.16 21.31 21.31 0 00-30.16 0L164.63 134.61 36.43 6.39a21.31 21.31 0 00-30.17 0 21.3 21.3 0 000 30.16l128.2 128.22L6.27 292.98a21.3 21.3 0 000 30.17 21.27 21.27 0 0015.08 6.25c5.46 0 10.92-2.1 15.08-6.25l128.21-128.22 128.22 128.22a21.27 21.27 0 0015.08 6.25c5.46 0 10.92-2.1 15.08-6.25a21.3 21.3 0 000-30.17zm0 0"/>
  </g>
</svg>